<?xml version="1.0" standalone="no"?>
<!DOCTYPE svg PUBLIC "-//W3C//DTD SVG 20010904//EN"
 "http://www.w3.org/TR/2001/REC-SVG-20010904/DTD/svg10.dtd">
<svg version="1.0" xmlns="http://www.w3.org/2000/svg"
 width="860.000000pt" height="860.000000pt" viewBox="0 0 860.000000 860.000000"
 preserveAspectRatio="xMidYMid meet">

<g transform="translate(0.000000,860.000000) scale(0.100000,-0.100000)"
fill="#000000" stroke="none">
<path d="M3610 7540 c-564 -29 -1228 -95 -1300 -129 -44 -20 -79 -81 -121
-211 -45 -139 -48 -178 -15 -217 34 -40 93 -60 225 -73 125 -12 3468 -13 3731
0 185 8 240 20 294 64 l30 23 -12 66 c-16 86 -99 313 -126 343 -24 27 -66 37
-256 59 -170 19 -566 52 -785 66 -226 13 -1444 20 -1665 9z"/>
<path d="M1850 6969 c0 -16 27 -46 35 -38 2 2 -5 15 -15 29 -15 19 -20 21 -20
9z"/>
<path d="M1835 6930 c-3 -5 -1 -10 4 -10 6 0 11 5 11 10 0 6 -2 10 -4 10 -3 0
-8 -4 -11 -10z"/>
<path d="M1850 6900 c0 -5 5 -10 10 -10 6 0 10 5 10 10 0 6 -4 10 -10 10 -5 0
-10 -4 -10 -10z"/>
<path d="M1884 6902 c3 -5 -15 -28 -39 -51 -36 -34 -46 -51 -55 -99 -6 -31
-13 -64 -15 -72 -10 -33 11 -43 94 -44 47 -1 81 3 81 9 0 6 -4 10 -10 10 -5 0
-10 3 -10 8 0 4 0 10 0 14 0 3 9 -2 20 -12 11 -10 17 -22 13 -28 -7 -11 313
-3 487 13 58 5 115 9 128 10 12 0 22 4 22 10 0 13 -67 30 -125 30 -75 0 -318
64 -411 109 -44 21 -96 52 -116 70 -32 28 -77 44 -64 23z"/>
<path d="M1820 6870 c0 -5 5 -10 11 -10 5 0 7 5 4 10 -3 6 -8 10 -11 10 -2 0
-4 -4 -4 -10z"/>
<path d="M5315 6744 c-44 -24 -74 -54 -100 -99 -29 -48 -48 -126 -39 -160 l6
-25 47 41 c64 58 96 69 194 69 99 0 192 -22 330 -79 53 -22 97 -37 97 -33 0
18 -109 137 -164 179 -134 101 -296 148 -371 107z"/>
<path d="M3110 6644 c-69 -19 -124 -51 -174 -103 -36 -37 -40 -39 -52 -23 -19
26 -111 31 -749 38 -526 6 -582 5 -594 -10 -7 -9 -19 -16 -25 -16 -16 0 -21
-49 -21 -230 l0 -155 136 -3 136 -3 9 -52 c4 -28 8 -176 9 -327 1 -268 10
-360 35 -360 6 0 23 29 39 65 27 59 116 165 139 165 5 0 12 -39 16 -87 3 -49
20 -267 36 -487 17 -219 30 -415 30 -436 l0 -37 -102 -33 c-57 -18 -125 -43
-151 -57 -61 -31 -130 -94 -151 -137 -20 -43 -21 -136 -1 -183 38 -90 204
-256 384 -383 50 -36 91 -69 91 -75 0 -23 191 -2119 201 -2208 7 -56 19 -113
30 -135 l20 -37 -28 -23 c-71 -60 -138 -129 -169 -176 -33 -50 -68 -155 -55
-167 3 -4 150 -12 326 -18 176 -6 460 -19 630 -28 456 -23 1825 -24 2330 0
204 9 485 22 625 27 140 6 279 13 309 16 l53 6 -5 36 c-13 74 -58 144 -159
244 l-99 97 -36 -15 c-19 -9 -68 -35 -108 -59 -49 -30 -79 -42 -93 -38 -12 3
-70 -2 -130 -11 -161 -24 -490 -50 -852 -66 -282 -13 -1146 -13 -1375 0 -206
12 -435 36 -482 51 -35 11 -37 20 -48 234 -3 61 -10 182 -15 270 -5 88 -14
250 -20 360 -6 110 -12 236 -15 280 -3 44 -9 177 -15 295 -5 118 -12 256 -15
305 -2 50 -7 167 -10 260 -4 94 -8 197 -10 230 -2 33 -7 188 -11 345 l-7 286
93 17 c318 61 537 199 694 437 42 63 81 148 73 157 -3 2 -16 -15 -30 -39 -69
-118 -223 -245 -368 -306 -210 -87 -412 -82 -618 14 -429 201 -610 640 -455
1103 51 152 90 218 188 317 80 81 103 97 196 142 58 28 132 58 165 67 94 25
275 31 370 12 67 -13 188 -16 750 -18 l670 -3 67 32 c158 75 395 110 552 82
134 -23 366 -111 366 -139 0 -4 -31 -31 -69 -60 -119 -88 -182 -210 -167 -323
26 -195 240 -331 470 -299 148 21 246 71 301 154 50 76 62 129 45 206 -19 91
-103 209 -182 257 -8 5 -26 25 -41 44 l-26 36 424 -4 c486 -5 436 -16 439 101
l1 72 -2025 5 c-1114 3 -2026 7 -2027 8 -20 16 39 90 117 147 111 81 224 120
351 120 76 0 90 -3 127 -27 23 -16 51 -28 63 -28 20 0 21 4 16 49 -13 111
-102 220 -196 240 -64 14 -73 13 -141 -5z m-882 -256 c222 -221 235 -235 217
-235 -11 0 -336 315 -403 392 -2 2 4 2 13 1 9 -1 87 -72 173 -158z m-103
-2144 c23 -224 27 -304 13 -304 -24 0 -183 174 -214 235 -57 109 -57 108 38
153 118 56 132 61 141 52 4 -4 14 -65 22 -136z"/>
<path d="M2245 6350 c104 -104 192 -190 195 -190 3 0 -81 86 -185 190 -104
105 -192 190 -195 190 -3 0 81 -85 185 -190z"/>
<path d="M1508 6553 c7 -3 16 -2 19 1 4 3 -2 6 -13 5 -11 0 -14 -3 -6 -6z"/>
<path d="M6649 5766 c-33 -23 -57 -60 -73 -112 -5 -17 1 -28 32 -50 51 -38 86
-80 117 -142 29 -59 47 -60 63 -4 33 112 36 287 5 318 -24 23 -103 18 -144
-10z"/>
<path d="M2943 5556 c-55 -18 -100 -46 -146 -94 l-38 -39 -28 28 c-28 28 -102
55 -127 45 -18 -7 -49 -70 -79 -162 -62 -190 -14 -395 129 -548 113 -122 250
-181 416 -179 208 1 390 105 493 282 l17 30 -72 43 c-58 34 -82 43 -120 43
-28 0 -46 4 -44 10 22 50 37 123 34 172 l-3 58 -57 7 c-62 8 -104 25 -129 54
-52 59 -64 151 -29 219 11 22 20 41 20 42 0 9 -202 -1 -237 -11z m-29 -298
c33 -47 10 -98 -44 -98 -32 0 -50 23 -50 64 0 53 65 76 94 34z"/>
<path d="M5040 5349 c-168 -33 -298 -184 -308 -358 -10 -173 77 -320 236 -398
72 -35 209 -44 294 -19 120 35 229 134 279 256 33 81 34 244 1 315 -30 66 -74
110 -144 146 -69 35 -83 37 -68 10 15 -28 12 -97 -5 -130 -46 -90 -228 -58
-259 46 -10 30 8 91 35 119 21 23 21 24 3 23 -10 -1 -39 -5 -64 -10z m205
-309 c15 -16 15 -22 5 -35 -7 -8 -23 -15 -36 -15 -36 0 -68 42 -47 63 13 14
61 6 78 -13z"/>
<path d="M4067 4880 c-40 -151 -58 -256 -52 -297 20 -133 120 -358 217 -488
106 -142 298 -304 428 -361 34 -15 48 -29 72 -77 16 -33 27 -61 25 -63 -3 -3
-39 12 -82 32 -47 22 -80 33 -86 27 -9 -9 161 -93 189 -93 19 0 15 26 -14 82
l-26 51 24 -7 c12 -4 66 -16 118 -28 52 -11 103 -25 114 -30 13 -7 16 -6 11 3
-5 7 -3 10 6 7 8 -3 13 -12 11 -21 -1 -8 3 -19 9 -23 7 -4 9 -3 6 4 -4 5 -4
17 -1 26 5 12 23 15 92 14 203 -1 434 86 581 218 61 54 76 82 86 148 l8 48
-47 -36 c-100 -76 -221 -133 -376 -176 -73 -21 -108 -24 -245 -25 -136 0 -173
3 -245 23 -172 46 -353 155 -483 291 -189 198 -294 435 -330 746 -3 29 -3 30
-10 5z"/>
<path d="M6465 4548 c-3 -18 -5 -60 -3 -92 l3 -59 85 -27 c96 -30 146 -54 153
-72 7 -20 -49 -120 -108 -191 -30 -36 -102 -108 -162 -161 -180 -161 -262
-275 -279 -386 l-7 -45 35 30 c20 17 66 56 104 88 38 32 85 63 106 69 21 6 40
18 43 27 3 9 45 45 92 81 126 95 345 314 373 373 83 176 -16 304 -287 373
-129 33 -141 32 -148 -8z"/>
<path d="M4985 3580 c10 -11 20 -20 23 -20 3 0 -3 9 -13 20 -10 11 -20 20 -23
20 -3 0 3 -9 13 -20z"/>
<path d="M4533 3582 c-13 -2 -35 -19 -51 -37 -27 -33 -29 -34 -67 -24 -51 14
-113 5 -173 -25 -57 -29 -157 -133 -200 -207 -30 -53 -50 -109 -38 -109 3 0
44 11 91 25 123 35 295 59 383 51 81 -7 181 -30 223 -52 16 -8 30 -10 33 -6 5
9 -72 132 -106 168 l-19 22 25 25 c35 35 36 94 1 135 -24 29 -58 40 -102 34z
m73 -45 c42 -36 33 -117 -13 -117 -19 0 -103 71 -103 87 0 21 38 53 64 53 14
0 37 -11 52 -23z"/>
<path d="M4940 3496 c0 -2 7 -9 15 -16 13 -11 14 -10 9 4 -5 14 -24 23 -24 12z"/>
<path d="M4850 3450 c0 -5 5 -10 11 -10 5 0 7 5 4 10 -3 6 -8 10 -11 10 -2 0
-4 -4 -4 -10z"/>
<path d="M4775 3335 c0 -13 3 -21 8 -18 4 2 7 10 7 18 0 8 -3 16 -7 18 -5 3
-8 -5 -8 -18z"/>
<path d="M4237 3143 c-191 -39 -381 -210 -438 -392 -33 -109 -5 -206 84 -288
98 -91 190 -118 392 -117 178 1 260 19 402 89 204 101 287 268 207 416 -61
111 -207 227 -344 270 -87 28 -224 38 -303 22z"/>
</g>
</svg>
